<svg x="0" y="0" width="48" height="48" version="1.1" xmlns="http://www.w3.org/2000/svg" xmlns:xlink="http://www.w3.org/1999/xlink"><defs><linearGradient x1="11.68966" y1="11.68966" x2="57.52354" y2="57.52354" gradientUnits="userSpaceOnUse" id="color-1"><stop offset="0" stop-color="#000000" stop-opacity="0.7"></stop><stop offset="1" stop-color="#000000" stop-opacity="0"></stop></linearGradient><filter id="dropshadow"><feColorMatrix type="matrix" values="0 0 0 0 .05  0 0 0 0 .15  0 0 0 0 .1  0 0 0 .8 0"></feColorMatrix> <feOffset dx="0" dy="1"></feOffset> <feGaussianBlur stdDeviation="1"></feGaussianBlur> <feComposite in="SourceGraphic"></feComposite></filter></defs><g fill="none" stroke="none" stroke-width="none" stroke-linecap="butt" stroke-linejoin="miter" stroke-miterlimit="none" stroke-dasharray="" stroke-dashoffset="0" font-family="none" font-weight="normal" font-size="none" text-anchor="start" mix-blend-mode="normal"><g fill="#000000" stroke="none" stroke-width="1" stroke-miterlimit="4" font-family="&quot;Open Sans&quot;, sans-serif" font-size="14"></g><path d="M3,24c0,-11.59798 9.40202,-21 21,-21c11.59798,0 21,9.40202 21,21c0,11.59798 -9.40202,21 -21,21c-11.59798,0 -21,-9.40202 -21,-21z" fill="#512da8" stroke-width="1" stroke-miterlimit="10" font-family="sans-serif" font-size="12" filter="url(#dropshadow)"></path><path d="M32.70572,15.29428l12.03228,12.03228c-1.42182,8.93373 -8.47771,15.98962 -17.41144,17.41144l-12.03228,-12.03228c-2.2274,-2.2274 -3.60462,-5.30499 -3.60462,-8.70572c0,-6.80146 5.50888,-12.31034 12.31034,-12.31034c3.40073,0 6.47832,1.37722 8.70572,3.60462z" fill="url(#color-1)" stroke-width="1" stroke-miterlimit="10" font-family="sans-serif" font-size="12"></path><path d="M36.31034,24c0,6.80146 -5.50888,12.31034 -12.31034,12.31034c-6.80146,0 -12.31034,-5.50888 -12.31034,-12.31034c0,-6.80146 5.50888,-12.31034 12.31034,-12.31034c6.80146,0 12.31034,5.50888 12.31034,12.31034z M31.3862,28.89951c-0.03693,-2.4436 -4.93029,-3.79158 -7.3862,-3.79158c-2.45591,0 -7.35543,1.34798 -7.3862,3.79158c1.59419,2.38821 4.30246,3.96393 7.3862,3.96393c3.08374,0 5.79201,-1.57572 7.3862,-3.96393z M20.3069,19.07586c0,2.04352 1.65574,3.6931 3.6931,3.6931c2.03736,0 3.6931,-1.64959 3.6931,-3.6931c0,-2.03736 -1.65574,-3.6931 -3.6931,-3.6931c-2.03736,0 -3.6931,1.65574 -3.6931,3.6931z" fill="#ffffff" stroke="none" stroke-width="0" stroke-miterlimit="4" font-family="&quot;Open Sans&quot;, sans-serif" font-size="14"></path></g></svg>